<?xml version="1.0" standalone="no"?>
<!DOCTYPE svg PUBLIC "-//W3C//DTD SVG 20010904//EN"
 "http://www.w3.org/TR/2001/REC-SVG-20010904/DTD/svg10.dtd">
<svg version="1.0" xmlns="http://www.w3.org/2000/svg"
 width="564.000000pt" height="564.000000pt" viewBox="0 0 564.000000 564.000000"
 preserveAspectRatio="xMidYMid meet">

<g transform="translate(0.000000,564.000000) scale(0.100000,-0.100000)"
fill="#000000" stroke="none">
<path d="M2733 4611 c-45 -33 -73 -84 -73 -133 1 -42 33 -113 59 -130 19 -11
21 -23 21 -99 0 -47 2 -88 4 -90 2 -2 38 -3 80 -1 l76 4 0 79 c0 77 1 81 30
106 43 35 60 74 60 131 0 131 -151 210 -257 133z"/>
<path d="M2699 4050 c-165 -26 -347 -91 -446 -158 -165 -112 -293 -301 -358
-525 -38 -134 -45 -195 -45 -399 l0 -186 -40 -7 c-84 -14 -181 -106 -200 -191
-5 -21 -10 -208 -10 -415 l0 -376 -44 -44 c-57 -57 -68 -113 -38 -182 50 -113
212 -136 280 -40 54 77 46 169 -19 228 l-39 35 0 241 c0 216 2 241 16 235 9
-3 33 -9 54 -12 l38 -6 4 -172 c5 -186 18 -241 83 -352 68 -118 233 -236 368
-264 37 -7 214 -10 563 -8 500 3 510 4 569 26 136 51 257 158 320 283 53 104
65 167 65 337 l0 149 38 6 c20 3 45 8 55 12 16 7 17 -9 17 -238 l0 -246 -31
-22 c-79 -56 -76 -209 4 -262 123 -81 283 13 264 155 -6 45 -41 102 -74 119
l-22 12 -3 406 c-3 367 -5 409 -21 442 -36 73 -111 129 -190 144 l-37 7 0 202
c0 218 -11 294 -66 452 -74 217 -232 412 -404 499 -69 34 -186 75 -280 96 -98
22 -290 32 -371 19z m356 -300 c120 -31 260 -103 320 -165 92 -94 147 -232
149 -375 1 -121 -48 -198 -148 -230 -44 -14 -219 -10 -410 10 -98 11 -144 10
-260 -1 -211 -21 -391 -19 -444 5 -52 24 -97 87 -112 159 -21 104 29 284 109
389 143 190 503 284 796 208z m40 -1165 c37 -36 34 -86 -6 -119 -37 -31 -67
-33 -102 -6 -33 27 -43 70 -23 108 18 34 28 40 74 41 22 1 41 -7 57 -24z m199
4 c26 -21 35 -65 20 -104 -8 -19 -55 -45 -83 -45 -36 0 -75 43 -75 83 0 75 79
113 138 66z m200 0 c50 -40 28 -128 -37 -144 -60 -15 -118 49 -98 107 6 17 19
37 28 44 27 20 77 17 107 -7z"/>
<path d="M2328 3344 c-50 -27 -77 -108 -52 -159 23 -47 62 -70 117 -70 43 0
52 4 83 37 27 30 34 46 34 78 0 55 -22 94 -64 114 -42 20 -82 20 -118 0z"/>
<path d="M3214 3350 c-30 -12 -62 -56 -70 -94 -12 -69 50 -146 119 -146 40 0
85 26 107 63 62 100 -46 222 -156 177z"/>
<path d="M2420 1393 c0 -21 64 -115 106 -157 165 -162 443 -158 610 9 29 29
64 75 78 103 l26 52 -410 0 c-225 0 -410 -3 -410 -7z"/>
</g>
</svg>
